<svg width="74" height="194" viewBox="0 0 74 194" fill="none" xmlns="http://www.w3.org/2000/svg">
<path d="M11.8652 18.3193L1.09863 13.9248V12.0498L11.8652 7.65527V9.63281L3.17871 12.9873L11.8652 16.3418V18.3193ZM17.0156 21C17.0156 21 17.0156 20.751 17.0156 20.2529C17.0156 19.7451 17.0156 19.0859 17.0156 18.2754C17.0156 17.4551 17.0156 16.5664 17.0156 15.6094C17.0156 14.6426 17.0156 13.6904 17.0156 12.7529C17.0156 11.8154 17.0156 10.9756 17.0156 10.2334C17.0156 9.49121 17.0156 8.94434 17.0156 8.59277C17.0156 7.41113 17.0059 6.37598 16.9863 5.4873C16.9766 4.58887 16.9326 3.90039 16.8545 3.42188H19.0518C19.0518 3.42188 19.0518 3.61719 19.0518 4.00781C19.0518 4.38867 19.0518 4.88672 19.0518 5.50195C19.0518 6.10742 19.0518 6.76172 19.0518 7.46484C19.0518 8.1582 19.0518 8.82715 19.0518 9.47168C19.0518 10.1162 19.0518 10.6582 19.0518 11.0977C19.0518 11.5371 19.0518 11.8008 19.0518 11.8887C19.5986 11.127 20.2383 10.5508 20.9707 10.1602C21.7031 9.76953 22.4551 9.57422 23.2266 9.57422C24.3984 9.57422 25.2969 9.95996 25.9219 10.7314C26.5469 11.4932 26.8594 12.6309 26.8594 14.1445C26.8594 14.5059 26.8594 14.9746 26.8594 15.5508C26.8594 16.1172 26.8594 16.7129 26.8594 17.3379C26.8594 17.9629 26.8594 18.5537 26.8594 19.1104C26.8594 19.667 26.8594 20.1211 26.8594 20.4727C26.8594 20.8242 26.8594 21 26.8594 21H24.8232C24.8232 21 24.8232 20.7656 24.8232 20.2969C24.8232 19.8184 24.8232 19.2373 24.8232 18.5537C24.8232 17.8604 24.8232 17.1865 24.8232 16.5322C24.8232 15.8682 24.8232 15.3457 24.8232 14.9648C24.8232 13.5879 24.6377 12.6699 24.2666 12.2109C23.9053 11.7422 23.3584 11.5078 22.626 11.5078C22.0986 11.5078 21.5908 11.6641 21.1025 11.9766C20.624 12.2891 20.2041 12.6846 19.8428 13.1631C19.4814 13.6416 19.2178 14.1299 19.0518 14.6279V21H17.0156ZM36.5801 21.2637C35.6133 21.2637 34.7197 21.0977 33.8994 20.7656C33.0791 20.4336 32.3809 19.999 31.8047 19.4619L32.083 17.1035C32.6885 17.7773 33.377 18.3242 34.1484 18.7441C34.9297 19.1543 35.8135 19.3594 36.7998 19.3594C37.9619 19.3594 38.8311 19.0859 39.4072 18.5391C39.9932 17.9922 40.2861 17.377 40.2861 16.6934C40.2861 16.1855 40.125 15.6973 39.8027 15.2285C39.4805 14.75 38.9922 14.3545 38.3379 14.042C37.6836 13.7295 36.8633 13.5732 35.877 13.5732H35.1006V11.7129H35.877C36.6094 11.7129 37.2832 11.5859 37.8984 11.332C38.5137 11.0781 39.0068 10.7559 39.3779 10.3652C39.749 9.96484 39.9346 9.56445 39.9346 9.16406C39.9346 8.69531 39.7881 8.30957 39.4951 8.00684C39.2021 7.69434 38.8359 7.46484 38.3965 7.31836C37.9668 7.17188 37.5273 7.09863 37.0781 7.09863C36.2383 7.09863 35.4961 7.22559 34.8516 7.47949C34.2168 7.72363 33.5869 8.16309 32.9619 8.79785L32.5811 6.9375C33.0205 6.42969 33.6309 6.00977 34.4121 5.67773C35.2031 5.3457 36.0576 5.17969 36.9756 5.17969C37.8838 5.17969 38.7188 5.33105 39.4805 5.63379C40.252 5.93652 40.8672 6.36621 41.3262 6.92285C41.7949 7.46973 42.0293 8.12402 42.0293 8.88574C42.0293 9.51074 41.8438 10.0771 41.4727 10.585C41.1016 11.083 40.6426 11.498 40.0957 11.8301C39.5586 12.1523 39.0312 12.3672 38.5137 12.4746C39.8516 12.8066 40.8379 13.3633 41.4727 14.1445C42.1172 14.9258 42.4395 15.7607 42.4395 16.6494C42.4395 17.4111 42.21 18.1436 41.751 18.8467C41.3018 19.5498 40.6377 20.1309 39.7588 20.5898C38.8896 21.0391 37.8301 21.2637 36.5801 21.2637ZM47.3555 18.3193V16.3418L56.0273 12.9873L47.3555 9.63281V7.65527L58.1221 12.0498V13.9248L47.3555 18.3193Z" fill="white"/>
<path d="M11.8652 186.319L1.09863 181.925V180.05L11.8652 175.655V177.633L3.17871 180.987L11.8652 184.342V186.319ZM17.0156 189C17.0156 189 17.0156 188.751 17.0156 188.253C17.0156 187.745 17.0156 187.086 17.0156 186.275C17.0156 185.455 17.0156 184.566 17.0156 183.609C17.0156 182.643 17.0156 181.69 17.0156 180.753C17.0156 179.815 17.0156 178.976 17.0156 178.233C17.0156 177.491 17.0156 176.944 17.0156 176.593C17.0156 175.411 17.0059 174.376 16.9863 173.487C16.9766 172.589 16.9326 171.9 16.8545 171.422H19.0518C19.0518 171.422 19.0518 171.617 19.0518 172.008C19.0518 172.389 19.0518 172.887 19.0518 173.502C19.0518 174.107 19.0518 174.762 19.0518 175.465C19.0518 176.158 19.0518 176.827 19.0518 177.472C19.0518 178.116 19.0518 178.658 19.0518 179.098C19.0518 179.537 19.0518 179.801 19.0518 179.889C19.5986 179.127 20.2383 178.551 20.9707 178.16C21.7031 177.77 22.4551 177.574 23.2266 177.574C24.3984 177.574 25.2969 177.96 25.9219 178.731C26.5469 179.493 26.8594 180.631 26.8594 182.145C26.8594 182.506 26.8594 182.975 26.8594 183.551C26.8594 184.117 26.8594 184.713 26.8594 185.338C26.8594 185.963 26.8594 186.554 26.8594 187.11C26.8594 187.667 26.8594 188.121 26.8594 188.473C26.8594 188.824 26.8594 189 26.8594 189H24.8232C24.8232 189 24.8232 188.766 24.8232 188.297C24.8232 187.818 24.8232 187.237 24.8232 186.554C24.8232 185.86 24.8232 185.187 24.8232 184.532C24.8232 183.868 24.8232 183.346 24.8232 182.965C24.8232 181.588 24.6377 180.67 24.2666 180.211C23.9053 179.742 23.3584 179.508 22.626 179.508C22.0986 179.508 21.5908 179.664 21.1025 179.977C20.624 180.289 20.2041 180.685 19.8428 181.163C19.4814 181.642 19.2178 182.13 19.0518 182.628V189H17.0156ZM36.5801 189.264C35.6133 189.264 34.7197 189.098 33.8994 188.766C33.0791 188.434 32.3809 187.999 31.8047 187.462L32.083 185.104C32.6885 185.777 33.377 186.324 34.1484 186.744C34.9297 187.154 35.8135 187.359 36.7998 187.359C37.9619 187.359 38.8311 187.086 39.4072 186.539C39.9932 185.992 40.2861 185.377 40.2861 184.693C40.2861 184.186 40.125 183.697 39.8027 183.229C39.4805 182.75 38.9922 182.354 38.3379 182.042C37.6836 181.729 36.8633 181.573 35.877 181.573H35.1006V179.713H35.877C36.6094 179.713 37.2832 179.586 37.8984 179.332C38.5137 179.078 39.0068 178.756 39.3779 178.365C39.749 177.965 39.9346 177.564 39.9346 177.164C39.9346 176.695 39.7881 176.31 39.4951 176.007C39.2021 175.694 38.8359 175.465 38.3965 175.318C37.9668 175.172 37.5273 175.099 37.0781 175.099C36.2383 175.099 35.4961 175.226 34.8516 175.479C34.2168 175.724 33.5869 176.163 32.9619 176.798L32.5811 174.938C33.0205 174.43 33.6309 174.01 34.4121 173.678C35.2031 173.346 36.0576 173.18 36.9756 173.18C37.8838 173.18 38.7188 173.331 39.4805 173.634C40.252 173.937 40.8672 174.366 41.3262 174.923C41.7949 175.47 42.0293 176.124 42.0293 176.886C42.0293 177.511 41.8438 178.077 41.4727 178.585C41.1016 179.083 40.6426 179.498 40.0957 179.83C39.5586 180.152 39.0312 180.367 38.5137 180.475C39.8516 180.807 40.8379 181.363 41.4727 182.145C42.1172 182.926 42.4395 183.761 42.4395 184.649C42.4395 185.411 42.21 186.144 41.751 186.847C41.3018 187.55 40.6377 188.131 39.7588 188.59C38.8896 189.039 37.8301 189.264 36.5801 189.264ZM47.3555 186.319V184.342L56.0273 180.987L47.3555 177.633V175.655L58.1221 180.05V181.925L47.3555 186.319Z" fill="white"/>
<line x1="29.5" y1="159.008" x2="29.5" y2="34.9917" stroke="#747474"/>
</svg>
