<svg width="297" height="469" viewBox="0 0 297 469" fill="none" xmlns="http://www.w3.org/2000/svg">
<path d="M-43.9225 426.723C-40.1299 415.44 -36.4689 398.873 -32.9396 377.019C-29.1526 355.203 -25.1229 330.001 -20.8502 301.413L3.63069 137.607C7.86482 109.276 11.5527 82.8377 14.6943 58.2929C18.0935 33.7866 19.629 15.5844 19.3006 3.68645C19.3006 3.68645 25.2629 4.31421 37.1875 5.56973C49.3696 6.86374 64.8807 8.78693 83.7208 11.3393C102.599 13.6341 122.212 16.3019 142.559 19.3428C189.434 26.3484 225.183 42.6183 249.804 68.1526C274.425 93.6869 283.579 127.574 277.267 169.813C270.915 212.31 252.113 243.861 220.859 264.468C189.902 284.856 150.599 291.489 102.951 284.368C92.6486 282.828 81.8505 281.083 70.5565 279.132C59.301 276.923 48.9854 274.591 39.6098 272.137L34.0092 309.611C29.6981 338.458 26.1642 363.866 23.4075 385.835C20.6508 407.804 19.4558 424.609 19.8226 436.249L-43.9225 426.723ZM105.399 238.918C132.442 242.96 154.03 242.105 170.161 236.353C186.293 230.601 198.173 221.581 205.802 209.293C213.728 196.785 218.845 182.805 221.155 167.351C223.464 151.898 222.51 137.142 218.292 123.083C214.112 108.766 205.278 96.5183 191.791 86.34C178.303 76.1617 158.682 69.148 132.926 65.2988C119.276 63.2587 108.053 61.7131 99.2574 60.6619C90.7195 59.6492 81.5186 58.6691 71.6544 57.7215L46.3652 226.936C55.4832 229.352 64.8973 231.549 74.6075 233.527C84.3176 235.504 94.5814 237.302 105.399 238.918Z" fill="#C3073F" fill-opacity="0.08"/>
</svg>
