<svg width="171" height="101" viewBox="0 0 171 101" fill="none" xmlns="http://www.w3.org/2000/svg">
<path d="M16.5625 85C16.875 83.2422 17.0508 80.7031 17.0898 77.3828C17.168 74.0625 17.207 70.2344 17.207 65.8984V41.0547C17.207 36.7578 17.168 32.7539 17.0898 29.043C17.0508 25.332 16.875 22.5977 16.5625 20.8398C16.5625 20.8398 17.6758 20.8008 19.9023 20.7227C22.168 20.6445 24.9805 20.5859 28.3398 20.5469C31.7383 20.4688 35.1367 20.4297 38.5352 20.4297C45.3711 20.4297 50.918 21.9922 55.1758 25.1172C59.4727 28.2422 61.6211 32.9688 61.6211 39.2969C61.6211 43.9453 60.4688 47.7539 58.1641 50.7227C55.8984 53.6523 52.9102 55.8203 49.1992 57.2266C45.5273 58.6328 41.6016 59.3359 37.4219 59.3359H29.7461V65.8984C29.7461 70.2344 29.7852 74.082 29.8633 77.4414C29.9414 80.7617 30.1172 83.2812 30.3906 85H16.5625ZM52.832 85L34.4336 57.1094L46.3281 54.8242C46.3281 54.8242 46.7969 55.4883 47.7344 56.8164C48.6719 58.1055 49.8828 59.8047 51.3672 61.9141C52.8906 64.0234 54.5312 66.2891 56.2891 68.7109C58.0469 71.1328 59.7461 73.4961 61.3867 75.8008C63.0664 78.0664 64.5312 80.0391 65.7812 81.7188C67.0703 83.3594 67.9492 84.4531 68.418 85H52.832ZM29.7461 49.8438H36.543C40.4102 49.8438 43.457 49.1016 45.6836 47.6172C47.9492 46.0938 49.082 43.3984 49.082 39.5312C49.082 36.2109 48.0469 33.8477 45.9766 32.4414C43.9062 31.0352 40.918 30.332 37.0117 30.332C35.293 30.332 33.9453 30.3516 32.9688 30.3906C31.9922 30.3906 30.918 30.4297 29.7461 30.5078V49.8438Z" fill="#A3FAF4"/>
<path d="M6.5625 85C6.875 83.2422 7.05078 80.7031 7.08984 77.3828C7.16797 74.0625 7.20703 70.2344 7.20703 65.8984V41.0547C7.20703 36.7578 7.16797 32.7539 7.08984 29.043C7.05078 25.332 6.875 22.5977 6.5625 20.8398C6.5625 20.8398 7.67578 20.8008 9.90234 20.7227C12.168 20.6445 14.9805 20.5859 18.3398 20.5469C21.7383 20.4688 25.1367 20.4297 28.5352 20.4297C35.3711 20.4297 40.918 21.9922 45.1758 25.1172C49.4727 28.2422 51.6211 32.9688 51.6211 39.2969C51.6211 43.9453 50.4688 47.7539 48.1641 50.7227C45.8984 53.6523 42.9102 55.8203 39.1992 57.2266C35.5273 58.6328 31.6016 59.3359 27.4219 59.3359H19.7461V65.8984C19.7461 70.2344 19.7852 74.082 19.8633 77.4414C19.9414 80.7617 20.1172 83.2812 20.3906 85H6.5625ZM42.832 85L24.4336 57.1094L36.3281 54.8242C36.3281 54.8242 36.7969 55.4883 37.7344 56.8164C38.6719 58.1055 39.8828 59.8047 41.3672 61.9141C42.8906 64.0234 44.5312 66.2891 46.2891 68.7109C48.0469 71.1328 49.7461 73.4961 51.3867 75.8008C53.0664 78.0664 54.5312 80.0391 55.7812 81.7188C57.0703 83.3594 57.9492 84.4531 58.418 85H42.832ZM19.7461 49.8438H26.543C30.4102 49.8438 33.457 49.1016 35.6836 47.6172C37.9492 46.0938 39.082 43.3984 39.082 39.5312C39.082 36.2109 38.0469 33.8477 35.9766 32.4414C33.9062 31.0352 30.918 30.332 27.0117 30.332C25.293 30.332 23.9453 30.3516 22.9688 30.3906C21.9922 30.3906 20.918 30.4297 19.7461 30.5078V49.8438Z" fill="#C3073F"/>
</svg>
